<svg xmlns="http://www.w3.org/2000/svg" viewBox="0 0 128 128">
<defs>
<radialGradient id="bg15" cx="0.35" cy="0.3" r="0.85">
<stop offset="0" stop-color="#ff5a5a"/><stop offset="1" stop-color="#8e1616"/>
</radialGradient>
<clipPath id="c15"><circle cx="64" cy="64" r="64"/></clipPath>

</defs>
<g clip-path="url(#c15)">
<rect width="128" height="128" fill="url(#bg15)"/>
<circle cx="40" cy="30" r="34" fill="#ffffff" fill-opacity="0.10"/>

<path d="M30 58 L32 24 L56 44 Z" fill="#fffaf2"/><path d="M98 58 L96 24 L72 44 Z" fill="#fffaf2"/>
<path d="M35 50 L36 32 L50 44 Z" fill="#ffb3c0"/><path d="M93 50 L92 32 L78 44 Z" fill="#f28f3b"/>
<ellipse cx="64" cy="72" rx="40" ry="34" fill="#fffaf2"/>
<ellipse cx="90" cy="54" rx="10" ry="8" fill="#f28f3b" fill-opacity="0.9"/>
<path d="M44 70 Q50 64 56 70 M72 70 Q78 64 84 70" stroke="#241a33" stroke-width="3" fill="none" stroke-linecap="round"/>
<path d="M61 80 L67 80 L64 84 Z" fill="#ff7aa0"/>
<path d="M58 86 Q61 90 64 86 Q67 90 70 86" stroke="#241a33" stroke-width="2.2" fill="none" stroke-linecap="round" stroke-linejoin="round"/>
<path d="M24 76 L40 78 M24 84 L40 82 M104 76 L88 78 M104 84 L88 82" stroke="#c9bcae" stroke-width="1.6" stroke-linecap="round"/>
<ellipse cx="39" cy="80" rx="5" ry="2.75" fill="#ff6f9c" fill-opacity="0.45"/><ellipse cx="89" cy="80" rx="5" ry="2.75" fill="#ff6f9c" fill-opacity="0.45"/>
<path d="M26 104 Q64 96 102 104 L106 112 Q64 104 22 112 Z" fill="#e0342f"/>
<circle cx="64" cy="112" r="9" fill="#f9c823"/><path d="M58 112 L70 112" stroke="#c99a10" stroke-width="2"/>
<circle cx="64" cy="115" r="1.6" fill="#8a6a08"/>
<ellipse cx="22" cy="92" rx="11" ry="14" fill="#fffaf2"/>
<ellipse cx="22" cy="96" rx="4" ry="3.4" fill="#ffb3c0"/><circle cx="17" cy="88" r="2" fill="#ffb3c0"/><circle cx="22" cy="86" r="2" fill="#ffb3c0"/><circle cx="27" cy="88" r="2" fill="#ffb3c0"/>
<path d="M4 136 Q8 114 64 116 Q120 114 124 136 Z" fill="#fffaf2"/>

</g>
</svg>
