<svg xmlns="http://www.w3.org/2000/svg" viewBox="0 0 128 128">
<defs>
<linearGradient id="g10" x1="0" y1="0" x2="128" y2="128" gradientUnits="userSpaceOnUse">
<stop offset="0" stop-color="#495057"/><stop offset="1" stop-color="#16191c"/>
</linearGradient>
<radialGradient id="l10" cx="0.2" cy="0.1" r="0.9">
<stop offset="0" stop-color="#ffffff" stop-opacity="0.28"/><stop offset="0.6" stop-color="#ffffff" stop-opacity="0"/>
</radialGradient>
<clipPath id="k10"><rect width="128" height="128" rx="34" ry="34"/></clipPath>

</defs>
<g clip-path="url(#k10)">
<rect width="128" height="128" fill="url(#g10)"/>
<rect width="128" height="128" fill="url(#l10)"/>
<g opacity="0.22" transform="translate(0 4)">

<rect x="34" y="96" width="60" height="12" rx="4" fill="#000000"/>
<path d="M42 96 L86 96 L82 88 L46 88 Z" fill="#000000"/>
<path d="M50 88 Q44 76 52 66 Q58 60 60 54 L46 60 Q36 62 34 54 Q34 46 44 36 Q52 28 58 24 L58 14 L66 22 Q88 24 92 50 Q96 70 84 88 Z" fill="#000000"/>
<path d="M64 24 Q84 30 86 52 Q88 68 80 82" stroke="#000000" stroke-width="6" fill="none" stroke-linecap="round"/>
<circle cx="58" cy="38" r="3.6" fill="#000000"/>
<circle cx="41" cy="52" r="2" fill="#000000"/>

</g>

<rect x="34" y="96" width="60" height="12" rx="4" fill="#f8f9fa"/>
<path d="M42 96 L86 96 L82 88 L46 88 Z" fill="#f8f9fa"/>
<path d="M50 88 Q44 76 52 66 Q58 60 60 54 L46 60 Q36 62 34 54 Q34 46 44 36 Q52 28 58 24 L58 14 L66 22 Q88 24 92 50 Q96 70 84 88 Z" fill="#f8f9fa"/>
<path d="M64 24 Q84 30 86 52 Q88 68 80 82" stroke="#fcc419" stroke-width="6" fill="none" stroke-linecap="round"/>
<circle cx="58" cy="38" r="3.6" fill="#16191c"/>
<circle cx="41" cy="52" r="2" fill="#16191c"/>

</g>
</svg>
