<svg xmlns="http://www.w3.org/2000/svg" viewBox="0 0 128 128">
<defs>
<linearGradient id="g11" x1="0" y1="0" x2="128" y2="128" gradientUnits="userSpaceOnUse">
<stop offset="0" stop-color="#1c7ed6"/><stop offset="1" stop-color="#0a2a52"/>
</linearGradient>
<radialGradient id="l11" cx="0.2" cy="0.1" r="0.9">
<stop offset="0" stop-color="#ffffff" stop-opacity="0.28"/><stop offset="0.6" stop-color="#ffffff" stop-opacity="0"/>
</radialGradient>
<clipPath id="k11"><rect width="128" height="128" rx="34" ry="34"/></clipPath>

</defs>
<g clip-path="url(#k11)">
<rect width="128" height="128" fill="url(#g11)"/>
<rect width="128" height="128" fill="url(#l11)"/>
<g opacity="0.22" transform="translate(0 4)">

<circle cx="64" cy="64" r="44" fill="none" stroke="#000000" stroke-width="4" opacity="0.55"/>
<path d="M92.3 35.7 L73.0 64.0 L92.3 92.3 L64.0 73.0 L35.7 92.3 L55.0 64.0 L35.7 35.7 L64.0 55.0 Z" fill="#000000" opacity="0.55"/>
<path d="M64.0 14.0 L71.8 56.2 L114.0 64.0 L71.8 71.8 L64.0 114.0 L56.2 71.8 L14.0 64.0 L56.2 56.2 Z" fill="#000000"/>
<path d="M64 14 L75 53 L64 64 L53 53 Z" fill="#000000"/>
<circle cx="64" cy="64" r="7" fill="#000000"/>
<circle cx="64" cy="64" r="3" fill="#000000"/>

</g>

<circle cx="64" cy="64" r="44" fill="none" stroke="#f1f7ff" stroke-width="4" opacity="0.55"/>
<path d="M92.3 35.7 L73.0 64.0 L92.3 92.3 L64.0 73.0 L35.7 92.3 L55.0 64.0 L35.7 35.7 L64.0 55.0 Z" fill="#f1f7ff" opacity="0.55"/>
<path d="M64.0 14.0 L71.8 56.2 L114.0 64.0 L71.8 71.8 L64.0 114.0 L56.2 71.8 L14.0 64.0 L56.2 56.2 Z" fill="#f1f7ff"/>
<path d="M64 14 L75 53 L64 64 L53 53 Z" fill="#ff6b6b"/>
<circle cx="64" cy="64" r="7" fill="#0a2a52"/>
<circle cx="64" cy="64" r="3" fill="#f1f7ff"/>

</g>
</svg>
